<?xml version="1.0" encoding="UTF-8"?>
<svg xmlns="http://www.w3.org/2000/svg" viewBox="0 0 700 300">
  <rect width="700" height="300"/>
  <g>
    <g id="integrity">
      <path id="i_1" data-name="i 1" d="M90.54,134.2c-.29,.3-.64,.44-1.05,.44s-.77-.15-1.05-.44c-.29-.3-.43-.65-.43-1.07v-30.67c0-.42,.14-.77,.43-1.05,.28-.28,.64-.43,1.05-.43s.77,.14,1.05,.43c.28,.28,.43,.64,.43,1.05v30.67c0,.42-.14,.77-.43,1.07Z" style="fill: #fff;"/>
      <path id="n_1_a" data-name="n 1 a" d="M105.16,134.2c-.29,.3-.64,.44-1.05,.44s-.77-.15-1.07-.44-.44-.65-.44-1.07v-30.67c0-.33,.1-.62,.31-.87s.47-.43,.77-.54c.7-.22,1.26,0,1.68,.62l9.53,15.35c.22,.35,.28,.72,.18,1.12s-.32,.7-.67,.92-.72,.28-1.12,.2-.7-.31-.92-.66l-6.77-10.95v25.48c0,.42-.14,.77-.43,1.07h0Z" style="fill: #fff;"/>
      <path id="n_1_b" data-name="n 1 b" d="M123.33,134.2c-.3,.3-.65,.44-1.07,.44s-.77-.15-1.05-.44c-.29-.3-.43-.65-.43-1.07v-30.14c0-.42,.14-.77,.43-1.05,.28-.28,.64-.43,1.05-.43s.77,.14,1.07,.43,.44,.64,.44,1.05v30.14c0,.42-.15,.77-.44,1.07Z" style="fill: #fff;"/>
      <path id="t_1_a" data-name="t 1 a" d="M156.02,103.95h-18.15c-.42,0-.77-.14-1.07-.43s-.44-.64-.44-1.05,.15-.77,.44-1.05,.65-.43,1.07-.43h18.15c.42,0,.77,.14,1.07,.43s.44,.64,.44,1.05-.15,.77-.44,1.05-.65,.43-1.07,.43Z" style="fill: #fff;"/>
      <path id="t_1_b" data-name="t 1 b" d="M147.96,134.2c-.29,.3-.64,.44-1.05,.44s-.77-.15-1.05-.44c-.29-.3-.43-.65-.43-1.07v-23.93c0-.42,.14-.77,.43-1.05,.28-.28,.64-.43,1.05-.43s.77,.14,1.05,.43c.28,.28,.43,.64,.43,1.05v23.93c0,.42-.14,.77-.43,1.07h0Z" style="fill: #fff;"/>
      <path id="e_1_a" data-name="e 1 a" d="M189.61,103.95h-18.01c-.42,0-.77-.14-1.05-.43-.29-.28-.43-.64-.43-1.05s.14-.77,.43-1.05c.28-.28,.64-.43,1.05-.43h18.01c.42,0,.77,.14,1.05,.43,.28,.28,.43,.64,.43,1.05s-.14,.77-.43,1.05-.64,.43-1.05,.43Z" style="fill: #fff;"/>
      <path id="e_1_b" data-name="e 1 b" d="M189.61,134.65h-17.09c-.42,0-.77-.15-1.05-.44-.29-.3-.43-.65-.43-1.07v-15.12c0-.42,.14-.77,.43-1.07,.28-.3,.64-.44,1.05-.44h11.18c.42,0,.77,.15,1.07,.44s.44,.65,.44,1.07-.15,.77-.44,1.05-.65,.43-1.07,.43h-9.7v12.16h15.61c.42,0,.77,.14,1.05,.43,.28,.28,.43,.63,.43,1.05s-.14,.77-.43,1.07-.64,.44-1.05,.44h0Z" style="fill: #fff;"/>
      <path id="g_1_b" data-name="g 1 b" d="M223.34,134.65h-8.91s-.06,0-.1-.03c-2.76-.18-5.12-1.22-7.07-3.12-1.82-1.75-3-3.98-3.55-6.67-.02-.07-.03-.15-.03-.26v-10.19c0-.42,.15-.77,.44-1.05s.65-.43,1.07-.43,.77,.14,1.05,.43c.28,.28,.43,.64,.43,1.05v10.03c.37,1.97,1.26,3.63,2.66,4.96,1.47,1.42,3.18,2.19,5.13,2.3h8.88c.42,0,.77,.14,1.07,.43,.3,.28,.44,.63,.44,1.05s-.15,.77-.44,1.07-.65,.44-1.07,.44h0Z" style="fill: #fff;"/>
      <path id="g_1_a" data-name="g 1 a" d="M208.32,106.67c-.44,0-.8-.14-1.08-.43-.29-.28-.42-.64-.41-1.05,.01-.42,.16-.77,.44-1.05,1.97-1.93,4.33-2.98,7.07-3.16h9.01c.42,0,.77,.14,1.07,.43s.44,.64,.44,1.05-.15,.77-.44,1.05-.65,.43-1.07,.43h-8.88c-1.93,.11-3.64,.89-5.13,2.33-.31,.26-.65,.39-1.02,.39h0Z" style="fill: #fff;"/>
      <path id="g_1_c" data-name="g 1 c" d="M224.41,133.37c-.3,.28-.65,.43-1.07,.43s-.77-.14-1.05-.43c-.29-.29-.43-.64-.43-1.05v-8.19c0-.42,.14-.77,.43-1.05,.28-.28,.64-.43,1.05-.43s.77,.14,1.07,.43,.44,.64,.44,1.05v8.19c0,.42-.15,.77-.44,1.05Z" style="fill: #fff;"/>
      <path id="r_1_a" data-name="r 1 a" d="M255.62,106.31c-.42,0-.78-.15-1.08-.46-.77-.83-1.69-1.47-2.76-1.91h-12.92c-.42,0-.77-.14-1.07-.43s-.44-.64-.44-1.05,.15-.77,.44-1.05,.65-.43,1.07-.43h13.18c.2,0,.37,.03,.53,.1,1.64,.61,3.02,1.51,4.14,2.7,.28,.31,.42,.66,.41,1.07s-.17,.75-.48,1.04c-.33,.28-.67,.43-1.02,.43h0Z" style="fill: #fff;"/>
      <path id="r_1_b" data-name="r 1 b" d="M239.91,134.2c-.29,.3-.64,.44-1.05,.44s-.77-.15-1.07-.44-.44-.65-.44-1.07v-15.78c0-.42,.15-.77,.44-1.07s.65-.44,1.07-.44h13.15c1.01-.33,1.82-.79,2.43-1.38,.31-.28,.66-.42,1.07-.41,.41,0,.75,.17,1.04,.48,.28,.31,.42,.66,.41,1.07s-.17,.75-.48,1.04c-1.07,.99-2.36,1.7-3.85,2.14-.18,.04-.31,.07-.39,.07h-11.9v14.3c0,.42-.14,.77-.43,1.07v-.02Z" style="fill: #fff;"/>
      <path id="r_1_c" data-name="r 1 c" d="M257,134.65c-.44,0-.8-.16-1.08-.49l-9.53-10.49c-.29-.31-.42-.66-.39-1.07,.02-.41,.19-.75,.49-1.04,.31-.28,.66-.42,1.07-.39,.41,.02,.75,.19,1.04,.49l9.53,10.49c.28,.31,.42,.66,.39,1.07-.02,.4-.19,.75-.49,1.04-.29,.26-.62,.39-1.02,.39h0Z" style="fill: #fff;"/>
      <path id="i_2" data-name="i 2" d="M273.54,134.2c-.29,.3-.64,.44-1.05,.44s-.77-.15-1.05-.44c-.29-.3-.43-.65-.43-1.07v-30.67c0-.42,.14-.77,.43-1.05,.28-.28,.64-.43,1.05-.43s.77,.14,1.05,.43c.28,.28,.43,.64,.43,1.05v30.67c0,.42-.14,.77-.43,1.07Z" style="fill: #fff;"/>
      <path id="t_2_a" data-name="t 2 a" d="M305.46,103.95h-18.15c-.42,0-.77-.14-1.07-.43s-.44-.64-.44-1.05,.15-.77,.44-1.05,.65-.43,1.07-.43h18.15c.42,0,.77,.14,1.07,.43s.44,.64,.44,1.05-.15,.77-.44,1.05-.65,.43-1.07,.43Z" style="fill: #fff;"/>
      <path id="t_2_b" data-name="t 2 b" d="M297.4,134.2c-.29,.3-.64,.44-1.05,.44s-.77-.15-1.05-.44c-.29-.3-.43-.65-.43-1.07v-23.93c0-.42,.14-.77,.43-1.05,.28-.28,.64-.43,1.05-.43s.77,.14,1.05,.43c.28,.28,.43,.64,.43,1.05v23.93c0,.42-.14,.77-.43,1.07h0Z" style="fill: #fff;"/>
      <path id="y_1_a" data-name="y 1 a" d="M330.05,119.3c-.57,0-1-.24-1.28-.72l-9.07-15.35c-.22-.35-.27-.72-.16-1.12,.11-.39,.34-.7,.69-.92s.72-.27,1.1-.16,.68,.34,.9,.69l9.11,15.35c.22,.35,.27,.72,.16,1.12-.11,.39-.34,.7-.69,.92-.24,.13-.49,.2-.76,.2h0Z" style="fill: #fff;"/>
      <path id="y_1_b" data-name="y 1 b" d="M320.97,134.65c-.24,0-.49-.08-.76-.23-.35-.22-.58-.53-.69-.92s-.06-.77,.16-1.12l9.07-15.32c.22-.35,.53-.58,.92-.69s.77-.05,1.12,.16c.35,.22,.58,.53,.69,.92s.05,.77-.16,1.12l-9.11,15.32c-.29,.5-.7,.76-1.25,.76h.01Z" style="fill: #fff;"/>
      <path id="y_1_c" data-name="y 1 c" d="M334.58,111.64c-.24,0-.49-.08-.76-.23-.35-.22-.58-.52-.69-.9-.11-.38-.06-.75,.16-1.1l4.57-7.69c.22-.35,.52-.58,.9-.69s.75-.05,1.1,.16c.35,.22,.58,.53,.69,.92s.05,.77-.16,1.12l-4.54,7.69c-.29,.48-.71,.72-1.28,.72h.01Z" style="fill: #fff;"/>
      <path d="M334.58,110.03c-.11,0-.15,.04-.13,.13,.02,.07,.07,.1,.13,.1,.11,0,.15-.04,.13-.13-.02-.07-.07-.1-.13-.1Z"/>
    </g>
    <g id="illusion">
      <path id="i_18" data-name="i 18" d="M389.32,134.2c-.29,.3-.64,.44-1.05,.44s-.77-.15-1.05-.44c-.29-.3-.43-.65-.43-1.07v-30.67c0-.42,.14-.77,.43-1.05,.28-.28,.64-.43,1.05-.43s.77,.14,1.05,.43c.28,.28,.43,.64,.43,1.05v30.67c0,.42-.14,.77-.43,1.07Z" style="fill: #fff;"/>
      <path d="M421.24,134.65h-18.01c-.42,0-.77-.15-1.05-.44-.29-.3-.43-.65-.43-1.07v-30.67c0-.42,.14-.77,.43-1.05,.28-.28,.64-.43,1.05-.43s.77,.14,1.05,.43c.28,.28,.43,.64,.43,1.05v29.19h16.53c.42,0,.77,.14,1.05,.43,.28,.28,.43,.63,.43,1.05s-.14,.77-.43,1.07-.64,.44-1.05,.44Z" style="fill: #fff;"/>
      <path d="M454.96,134.65h-18.01c-.42,0-.77-.15-1.05-.44-.29-.3-.43-.65-.43-1.07v-30.67c0-.42,.14-.77,.43-1.05,.28-.28,.64-.43,1.05-.43s.77,.14,1.05,.43c.28,.28,.43,.64,.43,1.05v29.19h16.53c.42,0,.77,.14,1.05,.43,.28,.28,.43,.63,.43,1.05s-.14,.77-.43,1.07-.64,.44-1.05,.44Z" style="fill: #fff;"/>
      <path d="M480.21,134.65h-5.06c-.09,0-.2-.02-.33-.07-1.12-.24-2.33-1.08-3.65-2.53-1.4-1.56-2.1-3.56-2.1-6.02v-23.57c0-.42,.14-.77,.43-1.05,.28-.28,.64-.43,1.05-.43s.77,.14,1.05,.43c.28,.28,.43,.64,.43,1.05v23.6c0,1.69,.45,3.02,1.35,4.01,.7,.77,1.37,1.29,2.01,1.58h4.83c.42,0,.77,.14,1.07,.43,.3,.28,.44,.63,.44,1.05s-.15,.77-.44,1.07-.65,.44-1.07,.44h0Zm9.55-.43c-.3,.3-.65,.44-1.07,.44s-.77-.15-1.05-.44c-.29-.3-.43-.65-.43-1.07v-30.67c0-.42,.14-.77,.43-1.05,.28-.28,.64-.43,1.05-.43s.77,.14,1.07,.43,.44,.64,.44,1.05v30.67c0,.42-.15,.77-.44,1.07Z" style="fill: #fff;"/>
      <path d="M509.73,119.33h-.16c-1.53-.2-2.9-.72-4.11-1.58-1.14-.81-2.01-1.85-2.6-3.12-.11-.22-.16-.43-.16-.62v-6.41c0-.11,.02-.25,.07-.43,.37-1.18,.94-2.21,1.71-3.09,1.27-1.49,2.91-2.5,4.93-3.02,.18-.04,.31-.07,.39-.07h11.18c.42,0,.77,.14,1.05,.43,.28,.28,.43,.64,.43,1.05s-.14,.77-.43,1.05-.64,.43-1.05,.43h-10.98c-1.38,.44-2.47,1.13-3.25,2.07-.48,.59-.83,1.19-1.05,1.81v5.82c.35,.66,.85,1.23,1.51,1.71,.83,.59,1.73,.93,2.7,1.02,.42,.04,.75,.23,1,.54,.25,.32,.36,.69,.31,1.1-.04,.37-.21,.69-.49,.94-.29,.25-.61,.38-.99,.38h-.01Zm6.8,15.31h-12.29c-.42,0-.77-.15-1.07-.44s-.44-.65-.44-1.07,.15-.77,.44-1.05c.3-.29,.65-.43,1.07-.43h12.1c1.12-.37,2.08-.91,2.89-1.61,.7-.64,1.25-1.37,1.64-2.2v-5.82c-.31-.57-.7-1.08-1.18-1.55-.57-.53-1.24-.94-2.01-1.25-.37-.15-.65-.42-.84-.79s-.2-.74-.05-1.12c.15-.37,.42-.65,.79-.84s.74-.2,1.12-.05c1.14,.44,2.15,1.06,3.02,1.87,.9,.88,1.57,1.81,2.01,2.79,.09,.26,.13,.46,.13,.59v6.48c0,.13-.04,.33-.13,.59-.55,1.29-1.39,2.45-2.53,3.48-1.23,1.09-2.64,1.87-4.24,2.33-.18,.04-.32,.07-.43,.07v.02Z" style="fill: #fff;"/>
      <path d="M538.89,134.2c-.29,.3-.64,.44-1.05,.44s-.77-.15-1.05-.44c-.29-.3-.43-.65-.43-1.07v-30.67c0-.42,.14-.77,.43-1.05,.28-.28,.64-.43,1.05-.43s.77,.14,1.05,.43c.28,.28,.43,.64,.43,1.05v30.67c0,.42-.14,.77-.43,1.07Z" style="fill: #fff;"/>
      <path d="M559.96,134.65c-.2,0-.41-.06-.62-.16-1.69-.79-3.16-1.87-4.4-3.25-2.59-2.89-3.88-6.51-3.88-10.85v-5.16c0-4.32,1.29-7.92,3.88-10.82,1.27-1.4,2.74-2.5,4.4-3.29,.37-.18,.75-.19,1.13-.05s.66,.4,.84,.77c.18,.37,.19,.75,.05,1.13s-.4,.66-.77,.84c-1.27,.61-2.41,1.47-3.42,2.56-2.1,2.35-3.16,5.29-3.16,8.84v5.16c0,3.57,1.05,6.53,3.16,8.88,.96,1.07,2.1,1.92,3.42,2.53,.37,.17,.63,.46,.77,.85s.13,.78-.05,1.15c-.29,.57-.73,.85-1.35,.85v.02Zm5.92-32.91c-.11,0-.15,.04-.13,.13,.02,.07,.07,.1,.13,.1,.11,0,.15-.04,.13-.13-.02-.07-.07-.1-.13-.1Zm2.76,32.91c-.61,0-1.06-.29-1.35-.85-.18-.37-.19-.76-.05-1.15s.4-.68,.77-.85c1.31-.61,2.45-1.46,3.42-2.53,2.1-2.35,3.16-5.29,3.16-8.84v-5.19c0-3.55-1.05-6.5-3.16-8.84-1.01-1.1-2.15-1.95-3.42-2.56-.37-.18-.63-.46-.77-.84-.14-.38-.13-.76,.05-1.13,.18-.37,.45-.63,.84-.77,.38-.14,.76-.13,1.13,.05,1.67,.79,3.13,1.89,4.4,3.29,2.59,2.89,3.88,6.5,3.88,10.82v5.16c0,4.34-1.29,7.96-3.88,10.85-1.25,1.38-2.72,2.47-4.4,3.25-.22,.11-.43,.16-.62,.16v-.03Z" style="fill: #fff;"/>
      <path d="M593.39,134.2c-.29,.3-.64,.44-1.05,.44s-.77-.15-1.07-.44-.44-.65-.44-1.07v-30.67c0-.33,.1-.62,.31-.87s.47-.43,.77-.54c.7-.22,1.26,0,1.68,.62l9.53,15.35c.22,.35,.28,.72,.18,1.12s-.32,.7-.67,.92-.72,.28-1.12,.2-.7-.31-.92-.66l-6.77-10.95v25.48c0,.42-.14,.77-.43,1.07h0Zm18.16,0c-.3,.3-.65,.44-1.07,.44s-.77-.15-1.05-.44c-.29-.3-.43-.65-.43-1.07v-30.14c0-.42,.14-.77,.43-1.05,.28-.28,.64-.43,1.05-.43s.77,.14,1.07,.43,.44,.64,.44,1.05v30.14c0,.42-.15,.77-.44,1.07Z" style="fill: #fff;"/>
    </g>
    <g id="fragmented_art" data-name="fragmented art">
      <path d="M217.18,179.83h-11.26c-.26,0-.48-.09-.66-.27s-.27-.4-.27-.66,.09-.48,.27-.66,.4-.27,.66-.27h11.26c.26,0,.48,.09,.66,.27s.27,.4,.27,.66-.09,.48-.27,.66-.4,.27-.66,.27Zm-10.03,18.91c-.18,.18-.4,.28-.66,.28s-.48-.09-.66-.28-.27-.41-.27-.67v-9.45c0-.26,.09-.48,.27-.67,.18-.18,.4-.28,.66-.28h6.99c.26,0,.48,.09,.67,.28,.18,.19,.28,.41,.28,.67s-.09,.48-.28,.66-.41,.27-.67,.27h-6.06v8.53c0,.26-.09,.48-.27,.67h0Z" style="fill: #fff; stroke: #fff; stroke-width: .2px;"/>
      <path d="M236.66,181.31c-.26,0-.49-.1-.68-.29-.48-.52-1.05-.92-1.73-1.19h-8.07c-.26,0-.48-.09-.67-.27-.18-.18-.28-.4-.28-.66s.09-.48,.28-.66c.18-.18,.41-.27,.67-.27h8.24c.12,0,.23,.02,.33,.06,1.03,.38,1.89,.95,2.59,1.68,.18,.19,.26,.41,.26,.67s-.11,.47-.3,.65c-.21,.18-.42,.27-.64,.27h0Zm-9.82,17.44c-.18,.18-.4,.28-.66,.28s-.48-.09-.67-.28c-.18-.19-.28-.41-.28-.67v-9.86c0-.26,.09-.48,.28-.67,.18-.18,.41-.28,.67-.28h8.22c.63-.21,1.14-.49,1.52-.86,.19-.18,.41-.26,.67-.26s.47,.11,.65,.3c.18,.19,.26,.42,.26,.67s-.11,.47-.3,.65c-.67,.62-1.47,1.06-2.4,1.34-.11,.03-.19,.04-.25,.04h-7.44v8.94c0,.26-.09,.48-.27,.67h0Zm10.68,.27c-.27,0-.5-.1-.68-.31l-5.96-6.55c-.18-.19-.26-.41-.25-.67,.01-.25,.12-.47,.31-.65s.41-.26,.67-.25c.25,.01,.47,.12,.65,.31l5.96,6.55c.18,.19,.26,.41,.25,.67-.01,.25-.12,.47-.31,.65-.18,.16-.39,.25-.64,.25Z" style="fill: #fff; stroke: #fff; stroke-width: .2px;"/>
      <path d="M247.22,199.02s-.12-.02-.29-.06c-.25-.07-.43-.22-.54-.44-.12-.23-.14-.46-.07-.71l5.96-19.17c.07-.25,.22-.43,.45-.54,.23-.12,.47-.14,.72-.07s.42,.22,.53,.45c.11,.23,.13,.47,.06,.72l-5.94,19.17c-.06,.19-.17,.35-.34,.47-.17,.12-.35,.18-.54,.18h0Zm6.18-7.09h-3.49c-.26,0-.48-.09-.66-.27s-.27-.4-.27-.66,.09-.48,.27-.66,.4-.27,.66-.27h3.49c.26,0,.48,.09,.67,.27s.28,.4,.28,.66-.09,.48-.28,.66-.41,.27-.67,.27Zm5.16,7.09c-.45,0-.75-.23-.88-.68l-3.51-12.43c-.07-.25-.04-.48,.09-.71,.13-.23,.32-.37,.56-.44s.48-.04,.7,.08c.22,.12,.36,.31,.43,.55l3.51,12.43c.07,.25,.04,.48-.08,.71-.12,.23-.31,.37-.55,.44-.11,.03-.2,.04-.27,.04h0Z" style="fill: #fff; stroke: #fff; stroke-width: .2px;"/>
      <path d="M279.6,199.02h-5.57s-.03,0-.06-.02c-1.73-.11-3.2-.76-4.42-1.95-1.14-1.1-1.88-2.49-2.22-4.17-.01-.04-.02-.1-.02-.16v-6.37c0-.26,.09-.48,.28-.66,.18-.18,.41-.27,.67-.27s.48,.09,.66,.27,.27,.4,.27,.66v6.27c.23,1.23,.79,2.27,1.66,3.1,.92,.89,1.99,1.37,3.21,1.44h5.55c.26,0,.48,.09,.67,.27s.28,.4,.28,.66-.09,.48-.28,.67c-.18,.18-.41,.28-.67,.28v-.02Zm-9.4-17.48c-.27,0-.5-.09-.68-.27s-.26-.4-.26-.66,.1-.48,.28-.66c1.23-1.21,2.71-1.86,4.42-1.97h5.63c.26,0,.48,.09,.67,.27,.18,.18,.28,.4,.28,.66s-.09,.48-.28,.66c-.18,.18-.41,.27-.67,.27h-5.55c-1.21,.07-2.27,.55-3.21,1.46-.19,.16-.4,.25-.64,.25h.01Zm10.06,16.67c-.18,.18-.41,.27-.67,.27s-.48-.09-.66-.27-.27-.4-.27-.66v-5.12c0-.26,.09-.48,.27-.66s.4-.27,.66-.27,.48,.09,.67,.27,.28,.4,.28,.66v5.12c0,.26-.09,.48-.28,.66Z" style="fill: #fff; stroke: #fff; stroke-width: .2px;"/>
      <path d="M289.85,198.74c-.18,.18-.4,.28-.66,.28s-.48-.09-.66-.28-.27-.41-.27-.67v-19.17c0-.36,.16-.62,.47-.8,.33-.18,.64-.17,.95,.02l8.14,5.07c.22,.14,.36,.33,.41,.59,.05,.25,.01,.49-.12,.71-.14,.22-.33,.36-.58,.41-.25,.06-.48,.01-.7-.12l-6.72-4.19v17.48c0,.26-.09,.48-.27,.67h.01Zm15.49,0c-.18,.18-.4,.28-.66,.28s-.48-.09-.66-.28-.27-.41-.27-.67v-18.84c0-.26,.09-.48,.27-.66s.4-.27,.66-.27,.48,.09,.66,.27,.27,.4,.27,.66v18.84c0,.26-.09,.48-.27,.67Z" style="fill: #fff; stroke: #fff; stroke-width: .2px;"/>
      <path d="M325.77,179.83h-11.26c-.26,0-.48-.09-.66-.27s-.27-.4-.27-.66,.09-.48,.27-.66,.4-.27,.66-.27h11.26c.26,0,.48,.09,.66,.27s.27,.4,.27,.66-.09,.48-.27,.66-.4,.27-.66,.27Zm0,19.19h-10.68c-.26,0-.48-.09-.66-.28s-.27-.41-.27-.67v-9.45c0-.26,.09-.48,.27-.67,.18-.18,.4-.28,.66-.28h6.99c.26,0,.48,.09,.67,.28,.18,.19,.28,.41,.28,.67s-.09,.48-.28,.66-.41,.27-.67,.27h-6.06v7.6h9.76c.26,0,.48,.09,.66,.27s.27,.4,.27,.66-.09,.48-.27,.67c-.18,.18-.4,.28-.66,.28h-.01Z" style="fill: #fff; stroke: #fff; stroke-width: .2px;"/>
      <path d="M336.04,198.74c-.18,.18-.4,.28-.66,.28s-.48-.09-.67-.28c-.18-.19-.28-.41-.28-.67v-19.17c0-.21,.06-.39,.2-.54,.13-.16,.29-.27,.48-.34,.44-.14,.79,0,1.05,.39l5.96,9.59c.14,.22,.17,.45,.11,.7s-.2,.44-.42,.58c-.22,.14-.45,.18-.7,.12s-.44-.19-.58-.41l-4.23-6.84v15.92c0,.26-.09,.48-.27,.67h.01Zm11.35,0c-.18,.18-.41,.28-.67,.28s-.48-.09-.66-.28-.27-.41-.27-.67v-18.84c0-.26,.09-.48,.27-.66s.4-.27,.66-.27,.48,.09,.67,.27c.18,.18,.28,.4,.28,.66v18.84c0,.26-.09,.48-.28,.67Z" style="fill: #fff; stroke: #fff; stroke-width: .2px;"/>
      <path d="M367.82,179.83h-11.34c-.26,0-.48-.09-.67-.27-.18-.18-.28-.4-.28-.66s.09-.48,.28-.66c.18-.18,.41-.27,.67-.27h11.34c.26,0,.48,.09,.67,.27,.18,.18,.28,.4,.28,.66s-.09,.48-.28,.66c-.18,.18-.41,.27-.67,.27Zm-5.03,18.91c-.18,.18-.4,.28-.66,.28s-.48-.09-.66-.28-.27-.41-.27-.67v-14.96c0-.26,.09-.48,.27-.66s.4-.27,.66-.27,.48,.09,.66,.27,.27,.4,.27,.66v14.96c0,.26-.09,.48-.27,.67Z" style="fill: #fff; stroke: #fff; stroke-width: .2px;"/>
      <path d="M388.82,179.83h-11.26c-.26,0-.48-.09-.66-.27s-.27-.4-.27-.66,.09-.48,.27-.66,.4-.27,.66-.27h11.26c.26,0,.48,.09,.66,.27s.27,.4,.27,.66-.09,.48-.27,.66-.4,.27-.66,.27Zm0,19.19h-10.68c-.26,0-.48-.09-.66-.28s-.27-.41-.27-.67v-9.45c0-.26,.09-.48,.27-.67,.18-.18,.4-.28,.66-.28h6.99c.26,0,.48,.09,.67,.28,.18,.19,.28,.41,.28,.67s-.09,.48-.28,.66-.41,.27-.67,.27h-6.06v7.6h9.76c.26,0,.48,.09,.66,.27s.27,.4,.27,.66-.09,.48-.27,.67c-.18,.18-.4,.28-.66,.28h-.01Z" style="fill: #fff; stroke: #fff; stroke-width: .2px;"/>
      <path d="M410.57,191.32c-.18,.18-.41,.27-.67,.27s-.48-.09-.66-.27-.27-.4-.27-.66v-6.27c-.23-1.23-.79-2.27-1.66-3.1-.93-.9-2-1.39-3.21-1.46h-5.55c-.26,0-.48-.09-.67-.27-.18-.18-.28-.4-.28-.66s.09-.48,.28-.66c.18-.18,.41-.27,.67-.27h5.63c1.71,.11,3.18,.77,4.42,1.97,1.15,1.1,1.89,2.48,2.22,4.15,.01,.04,.02,.1,.02,.18v6.37c0,.26-.09,.48-.28,.66v.02Zm-6.43,7.7h-5.57c-.26,0-.48-.09-.67-.28-.18-.19-.28-.41-.28-.67s.09-.48,.28-.66,.41-.27,.67-.27h5.55c1.22-.07,2.29-.55,3.21-1.44,.18-.18,.4-.26,.66-.26s.48,.1,.66,.28,.26,.4,.26,.66-.1,.48-.28,.66c-1.22,1.19-2.69,1.84-4.42,1.95h-.02s-.03,.02-.04,.02h0Z" style="fill: #fff; stroke: #fff; stroke-width: .2px;"/>
      <path d="M440.64,199.02s-.12-.02-.29-.06c-.25-.07-.43-.22-.54-.44-.12-.23-.14-.46-.07-.71l5.96-19.17c.07-.25,.22-.43,.45-.54,.23-.12,.47-.14,.72-.07s.42,.22,.53,.45,.13,.47,.06,.72l-5.94,19.17c-.06,.19-.17,.35-.34,.47-.17,.12-.35,.18-.54,.18h0Zm6.18-7.09h-3.49c-.26,0-.48-.09-.66-.27s-.27-.4-.27-.66,.09-.48,.27-.66,.4-.27,.66-.27h3.49c.26,0,.48,.09,.67,.27s.28,.4,.28,.66-.09,.48-.28,.66-.41,.27-.67,.27Zm5.16,7.09c-.45,0-.75-.23-.88-.68l-3.51-12.43c-.07-.25-.04-.48,.09-.71,.13-.23,.32-.37,.56-.44s.48-.04,.7,.08,.36,.31,.43,.55l3.51,12.43c.07,.25,.04,.48-.08,.71-.12,.23-.31,.37-.55,.44-.11,.03-.2,.04-.27,.04h0Z" style="fill: #fff; stroke: #fff; stroke-width: .2px;"/>
      <path d="M472.15,181.31c-.26,0-.49-.1-.68-.29-.48-.52-1.05-.92-1.73-1.19h-8.07c-.26,0-.48-.09-.67-.27-.18-.18-.28-.4-.28-.66s.09-.48,.28-.66c.18-.18,.41-.27,.67-.27h8.24c.12,0,.23,.02,.33,.06,1.03,.38,1.89,.95,2.59,1.68,.18,.19,.26,.41,.26,.67s-.11,.47-.3,.65c-.21,.18-.42,.27-.64,.27h0Zm-9.82,17.44c-.18,.18-.4,.28-.66,.28s-.48-.09-.67-.28c-.18-.19-.28-.41-.28-.67v-9.86c0-.26,.09-.48,.28-.67,.18-.18,.41-.28,.67-.28h8.22c.63-.21,1.14-.49,1.52-.86,.19-.18,.41-.26,.67-.26s.47,.11,.65,.3,.26,.42,.26,.67-.11,.47-.3,.65c-.67,.62-1.47,1.06-2.4,1.34-.11,.03-.19,.04-.25,.04h-7.44v8.94c0,.26-.09,.48-.27,.67h0Zm10.68,.27c-.27,0-.5-.1-.68-.31l-5.96-6.55c-.18-.19-.26-.41-.25-.67,.01-.25,.12-.47,.31-.65s.41-.26,.67-.25c.25,.01,.47,.12,.65,.31l5.96,6.55c.18,.19,.26,.41,.25,.67-.01,.25-.12,.47-.31,.65-.18,.16-.39,.25-.64,.25Z" style="fill: #fff; stroke: #fff; stroke-width: .2px;"/>
      <path d="M494.05,179.83h-11.34c-.26,0-.48-.09-.67-.27-.18-.18-.28-.4-.28-.66s.09-.48,.28-.66c.18-.18,.41-.27,.67-.27h11.34c.26,0,.48,.09,.67,.27,.18,.18,.28,.4,.28,.66s-.09,.48-.28,.66c-.18,.18-.41,.27-.67,.27Zm-5.03,18.91c-.18,.18-.4,.28-.66,.28s-.48-.09-.66-.28-.27-.41-.27-.67v-14.96c0-.26,.09-.48,.27-.66s.4-.27,.66-.27,.48,.09,.66,.27,.27,.4,.27,.66v14.96c0,.26-.09,.48-.27,.67Z" style="fill: #fff; stroke: #fff; stroke-width: .2px;"/>
    </g>
  </g>
</svg>